name E:\Dropbox\SEL\BOX\Experiment\240124_SUB1_PJH\c3d\XYZ\UpDown_TrcMot\15_10_trial2_D1_ExtLoadAPP1.mot
datacolumns 37
datarows 10
range 7.77 7.779
endheader

time	    ground_force1_vx	    ground_force1_vy	    ground_force1_vz	    ground_force1_px	    ground_force1_py	    ground_force1_pz	    ground_torque1_x	    ground_torque1_y	    ground_torque1_z	    ground_force2_vx	    ground_force2_vy	    ground_force2_vz	    ground_force2_px	    ground_force2_py	    ground_force2_pz	    ground_torque2_x	    ground_torque2_y	    ground_torque2_z	      hand_force3_vx	      hand_force3_vy	      hand_force3_vz	      hand_force3_px	      hand_force3_py	      hand_force3_pz	      hand_torque3_x	      hand_torque3_y	      hand_torque3_z	      hand_force4_vx	      hand_force4_vy	      hand_force4_vz	      hand_force4_px	      hand_force4_py	      hand_force4_pz	      hand_torque4_x	      hand_torque4_y	      hand_torque4_z	
7.77	         40.11732574	        424.96435372	        -19.50713574	          0.23060903	          0.00000000	          0.29894342	          0.00000000	         -4.62046703	          0.00000000	        -37.36062966	        384.67914599	        -14.29416038	          0.57016506	          0.00000000	          0.26808559	          0.00000000	          3.15038514	          0.00000000	         -2.69199945	        -59.28614081	         16.41609485	          0.21211316	          0.87820926	          0.03100193	          0.00182342	         -0.55437291	          0.02247386	          4.58085681	        -56.30629168	         17.07919877	          0.60225999	          0.87820926	          0.03931147	         -0.00136863	          0.42191265	         -0.01611693	
7.771	         40.14494897	        425.27230400	        -19.60956264	          0.23062838	          0.00000000	          0.29903341	          0.00000000	         -4.61981899	          0.00000000	        -37.37873136	        385.14428626	        -14.42667435	          0.57013918	          0.00000000	          0.26826654	          0.00000000	          3.15563684	          0.00000000	         -2.72073977	        -59.35850253	         16.41845516	          0.21195733	          0.87737392	          0.03135984	          0.00187748	         -0.55576065	          0.02295862	          4.61415670	        -56.43908179	         17.05635137	          0.60226235	          0.87737392	          0.03957163	         -0.00141970	          0.42415274	         -0.01654340	
7.772	         40.17328669	        425.57316274	        -19.70733072	          0.23064727	          0.00000000	          0.29912091	          0.00000000	         -4.61900533	          0.00000000	        -37.39716559	        385.59837214	        -14.55696131	          0.57011388	          0.00000000	          0.26844297	          0.00000000	          3.16080776	          0.00000000	         -2.75058332	        -59.43128987	         16.42063047	          0.21180099	          0.87653665	          0.03171485	          0.00193311	         -0.55715426	          0.02344342	          4.64790422	        -56.57183116	         17.03354987	          0.60226405	          0.87653665	          0.03982832	         -0.00147258	          0.42644122	         -0.01697843	
7.773	         40.20222157	        425.86663329	        -19.80040142	          0.23066569	          0.00000000	          0.29920590	          0.00000000	         -4.61802193	          0.00000000	        -37.41594985	        386.04042079	        -14.68494971	          0.57008920	          0.00000000	          0.26861466	          0.00000000	          3.16589000	          0.00000000	         -2.78149637	        -59.50448174	         16.42262175	          0.21164422	          0.87569747	          0.03206690	          0.00199032	         -0.55855040	          0.02392821	          4.68208228	        -56.70442335	         17.01085755	          0.60226507	          0.87569747	          0.04008145	         -0.00152727	          0.42878011	         -0.01742209	
7.774	         40.23163589	        426.15244285	        -19.88874800	          0.23068364	          0.00000000	          0.29928831	          0.00000000	         -4.61686490	          0.00000000	        -37.43510097	        386.46949884	        -14.81057406	          0.57006520	          0.00000000	          0.26878143	          0.00000000	          3.17087619	          0.00000000	         -2.81344420	        -59.57805539	         16.42443184	          0.21148706	          0.87485640	          0.03241597	          0.00204907	         -0.55994573	          0.02441292	          4.71667241	        -56.83673976	         16.98833684	          0.60226541	          0.87485640	          0.04033090	         -0.00158379	          0.43117127	         -0.01787442	
7.775	         40.26141191	        426.43034249	        -19.97235569	          0.23070115	          0.00000000	          0.29936813	          0.00000000	         -4.61553060	          0.00000000	        -37.45463514	        386.88472508	        -14.93377490	          0.57004192	          0.00000000	          0.26894312	          0.00000000	          3.17575940	          0.00000000	         -2.84639117	        -59.65198628	         16.42606557	          0.21132958	          0.87401344	          0.03276200	          0.00210936	         -0.56133697	          0.02489751	          4.75165479	        -56.96865967	         16.96604936	          0.60226507	          0.87401344	          0.04057658	         -0.00164212	          0.43361641	         -0.01833546	
7.776	         40.29143207	        426.70010717	        -20.05122167	          0.23071820	          0.00000000	          0.29944531	          0.00000000	         -4.61401570	          0.00000000	        -37.47456783	        387.28527291	        -15.05449881	          0.57001943	          0.00000000	          0.26909955	          0.00000000	          3.18053322	          0.00000000	         -2.88030078	        -59.72624794	         16.42752978	          0.21117185	          0.87316861	          0.03310495	          0.00217115	         -0.56272087	          0.02538189	          4.78700837	        -57.10006023	         16.94405593	          0.60226404	          0.87316861	          0.04081838	         -0.00170228	          0.43611705	         -0.01880519	
7.777	         40.32157933	        426.96153581	        -20.12535514	          0.23073482	          0.00000000	          0.29951984	          0.00000000	         -4.61231712	          0.00000000	        -37.49491381	        387.67037263	        -15.17269836	          0.56999775	          0.00000000	          0.26925060	          0.00000000	          3.18519174	          0.00000000	         -2.91513580	        -59.80081188	         16.42883339	          0.21101392	          0.87232191	          0.03344480	          0.00223444	         -0.56409424	          0.02586602	          4.82271088	        -57.23081648	         16.92241668	          0.60226233	          0.87232191	          0.04105622	         -0.00176425	          0.43867452	         -0.01928363	
7.778	         40.35173747	        427.21445126	        -20.19477726	          0.23075100	          0.00000000	          0.29959168	          0.00000000	         -4.61043212	          0.00000000	        -37.51568710	        388.03931346	        -15.28833204	          0.56997694	          0.00000000	          0.26939611	          0.00000000	          3.18972955	          0.00000000	         -2.95085835	        -59.87564750	         16.42998745	          0.21085587	          0.87147337	          0.03378151	          0.00229918	         -0.56545394	          0.02634980	          4.85873894	        -57.36080144	         16.90119101	          0.60225992	          0.87147337	          0.04128999	         -0.00182803	          0.44128995	         -0.01977072	
7.779	         40.38179134	        427.45870030	        -20.25952112	          0.23076676	          0.00000000	          0.29966083	          0.00000000	         -4.60835829	          0.00000000	        -37.53690098	        388.39144536	        -15.40136421	          0.56995703	          0.00000000	          0.26953598	          0.00000000	          3.19414175	          0.00000000	         -2.98742997	        -59.95072206	         16.43100513	          0.21069777	          0.87062299	          0.03411503	          0.00236535	         -0.56679690	          0.02683318	          4.89506812	        -57.48988620	         16.88043767	          0.60225681	          0.87062299	          0.04151961	         -0.00189361	          0.44396426	         -0.02026644	
